<svg width="1300" height="860" viewBox="0 0 1300 860" fill="none" xmlns="http://www.w3.org/2000/svg">
<rect width="1300" height="860" fill="#272727"/>
<path d="M579.587 507.454C571.841 507.454 565.213 504.699 559.702 499.188C554.182 493.668 551.422 487.035 551.422 479.289V324.38C551.422 316.635 554.182 310.002 559.702 304.481C565.213 298.97 571.841 296.215 579.587 296.215H650L678.165 324.38H776.744C784.489 324.38 791.122 327.14 796.642 332.661C802.153 338.172 804.909 344.8 804.909 352.546V479.289C804.909 487.035 802.153 493.668 796.642 499.188C791.122 504.699 784.489 507.454 776.744 507.454H579.587ZM579.587 479.289H776.744V352.546H666.547L638.382 324.38H579.587V479.289ZM762.661 563.785H523.256C515.511 563.785 508.883 561.03 503.372 555.519C497.851 549.998 495.091 543.365 495.091 535.62V352.546H523.256V535.62H762.661V563.785ZM607.752 451.124H748.578L701.05 387.752L664.083 437.041L641.198 406.412L607.752 451.124Z" fill="#1E1E1E"/>
</svg>
