<svg width="676" height="474" viewBox="0 0 676 474" fill="none" xmlns="http://www.w3.org/2000/svg">
<path d="M619.536 142.937C619.536 123.178 618.187 106.861 615.49 93.9875C612.793 81.1137 609.795 70.4862 606.499 62.1029C603.502 53.4208 600.654 46.3857 597.956 40.9963C595.259 35.3081 593.911 30.0693 593.911 25.2791C593.911 20.7879 595.709 17.0456 599.305 14.0517C602.902 11.0585 607.098 8.51327 611.894 6.41745C616.989 4.32233 622.084 2.82502 627.179 1.92691C632.574 1.0288 636.92 0.580078 640.217 0.580078C648.908 0.580078 655.203 1.77711 659.099 4.17253C662.996 6.56725 666.142 11.2076 668.54 18.0936C671.238 26.7757 673.036 38.302 673.935 52.6725C675.134 66.744 675.733 81.8627 675.733 98.0294C675.733 121.082 674.385 146.379 671.688 173.923C668.989 201.466 664.644 229.159 658.649 257.002C652.955 284.845 645.462 311.79 636.171 337.836C627.179 363.882 616.239 387.084 603.352 407.443C590.464 427.501 575.628 443.665 558.843 455.942C542.06 467.919 523.028 473.904 501.748 473.904C484.963 473.904 469.828 470.615 456.34 464.024C443.153 457.14 431.314 447.86 420.824 436.182C410.334 424.505 401.043 410.885 392.95 395.318C385.157 379.45 378.264 362.535 372.27 344.572C365.376 362.834 357.433 379.899 348.442 395.766C339.451 411.335 329.41 424.957 318.321 436.635C307.531 448.305 295.542 457.44 282.355 464.024C269.167 470.615 254.93 473.904 239.645 473.904C220.763 473.904 203.978 469.863 189.293 461.781C174.906 453.399 162.168 442.174 151.078 428.1C139.989 413.729 130.398 397.114 122.305 378.252C114.213 359.391 107.17 339.482 101.175 318.526C95.4805 297.569 90.685 276.013 86.7886 253.858C82.8923 231.704 79.5958 210.298 76.8984 189.641C74.2011 168.983 71.953 149.673 70.1548 131.71C68.3566 113.747 66.5584 98.1792 64.7594 85.0058C62.6617 73.0307 59.5146 63.75 55.3186 57.1637C51.4223 50.5766 44.6786 47.2838 35.0877 47.2838C29.9925 47.2838 25.6466 48.1819 22.05 49.9781C18.4534 51.7743 14.557 54.3189 10.361 57.6124L0.919922 46.3857C7.81345 40.6975 15.4562 35.1583 23.8483 29.7697C32.5401 24.0814 41.8313 19.1414 51.722 14.9505C61.6127 10.7589 72.2529 7.31625 83.6421 4.62123C95.0313 1.9269 107.02 0.580078 119.608 0.580078C137.591 0.580078 152.127 3.72311 163.217 10.0106C174.306 15.9977 182.998 23.632 189.293 32.9134C195.886 41.8945 200.532 51.6245 203.229 62.1029C205.926 72.5813 207.875 82.0125 209.074 90.3951C214.468 135.602 219.714 175.42 224.809 209.849C230.204 244.278 235.898 273.169 241.893 296.521C247.887 319.574 254.331 337.087 261.225 349.063C268.418 360.739 276.809 366.577 286.4 366.577C292.695 366.577 298.839 363.882 304.833 358.493C310.828 353.105 316.522 345.619 321.917 336.039C327.312 326.459 332.407 314.933 337.202 301.46C341.998 287.689 346.194 272.57 349.791 256.104C346.793 239.638 344.246 223.321 342.148 207.155C340.05 190.988 338.102 175.57 336.303 160.9C334.805 145.931 333.306 132.009 331.808 119.136C330.31 106.262 328.661 94.8856 326.862 85.0058C322.367 56.8641 324.914 35.7575 334.505 21.6867C344.396 7.61515 364.027 0.580078 393.4 0.580078C406.287 0.580078 417.077 1.77711 425.769 4.17253C434.761 6.26834 442.104 10.4593 447.798 16.7467C453.793 22.7339 458.588 31.1172 462.185 41.8945C465.781 52.3729 468.629 65.8452 470.727 82.3114C476.421 127.219 481.966 167.336 487.361 202.664C492.756 237.991 498.45 267.78 504.445 292.03C510.439 316.28 516.883 334.842 523.777 347.715C530.97 360.289 539.362 366.577 548.953 366.577C559.143 366.577 568.584 360.289 577.276 347.715C585.968 335.141 593.461 318.526 599.755 297.868C606.049 277.211 610.845 253.41 614.142 226.465C617.738 199.52 619.536 171.678 619.536 142.937Z" fill="white"/>
</svg>
