<svg width="525" height="123" viewBox="0 0 525 123" fill="none" xmlns="http://www.w3.org/2000/svg">
<path d="M239.557 77.416C239.557 78.791 239.75 80.2949 240.137 81.9277C240.567 83.5176 241.168 85.1289 241.942 86.7617C242.715 88.3945 243.661 89.9629 244.778 91.4668C245.938 92.9277 247.248 94.2383 248.709 95.3984C250.213 96.5586 251.868 97.4824 253.672 98.1699C255.477 98.8574 257.453 99.2012 259.602 99.2012C261.106 99.2012 262.502 99.0293 263.791 98.6855C265.08 98.3418 266.284 97.8691 267.401 97.2676C268.518 96.666 269.592 95.9785 270.623 95.2051C271.655 94.3887 272.686 93.5293 273.717 92.627L275.328 94.1738C274.34 95.5059 273.073 96.9668 271.526 98.5566C269.979 100.146 268.11 101.65 265.918 103.068C263.727 104.443 261.17 105.604 258.248 106.549C255.327 107.451 251.996 107.902 248.258 107.902C244.52 107.902 240.868 107.236 237.301 105.904C233.778 104.529 230.641 102.488 227.891 99.7812C225.141 97.0742 222.928 93.7012 221.252 89.6621C219.62 85.623 218.803 80.8965 218.803 75.4824C218.803 71.5723 219.297 67.9844 220.286 64.7188C221.274 61.4531 222.606 58.5098 224.282 55.8887C226 53.2676 227.977 50.9688 230.211 48.9922C232.489 47.0156 234.873 45.3828 237.366 44.0938C239.858 42.7617 242.393 41.7734 244.971 41.1289C247.592 40.4414 250.106 40.0977 252.512 40.0977C255.692 40.0977 258.463 40.4414 260.827 41.1289C263.19 41.8164 265.145 42.7402 266.692 43.9004C268.282 45.0605 269.463 46.4141 270.237 47.9609C271.01 49.4648 271.397 51.0547 271.397 52.7305C271.397 54.75 270.817 56.5762 269.657 58.209C268.496 59.7988 266.95 61.1953 265.016 62.3984L239.557 77.416ZM252.512 64.332C253.071 63.9883 253.522 63.666 253.866 63.3652C254.252 63.0215 254.553 62.6348 254.768 62.2051C254.983 61.7324 255.133 61.1738 255.219 60.5293C255.348 59.8418 255.412 59.0039 255.412 58.0156C255.412 56.9414 255.284 55.7598 255.026 54.4707C254.811 53.1387 254.424 51.8926 253.866 50.7324C253.307 49.5723 252.598 48.6055 251.739 47.832C250.879 47.0586 249.848 46.6719 248.645 46.6719C247.098 46.6719 245.766 47.1445 244.649 48.0898C243.575 48.9922 242.672 50.1738 241.942 51.6348C241.254 53.0957 240.696 54.7715 240.266 56.6621C239.879 58.5098 239.578 60.3789 239.364 62.2695C239.149 64.1602 239.02 65.9863 238.977 67.748C238.934 69.4668 238.912 70.9277 238.912 72.1309L252.512 64.332Z" fill="white"/>
<path d="M207.227 45.6406V93.2715C207.227 95.5488 207.657 97.1387 208.516 98.041C209.376 98.9004 210.557 99.3301 212.061 99.3301C213.221 99.3301 214.253 99.0078 215.155 98.3633C216.057 97.7188 216.831 96.9883 217.475 96.1719C218.249 95.2695 218.915 94.2168 219.473 93.0137L221.471 93.916C220.827 95.291 220.054 96.7949 219.151 98.4277C218.292 100.061 217.132 101.586 215.671 103.004C214.21 104.379 212.362 105.539 210.128 106.484C207.936 107.43 205.165 107.902 201.813 107.902C199.923 107.902 198.096 107.623 196.335 107.064C194.616 106.506 193.069 105.625 191.694 104.422C190.362 103.219 189.288 101.715 188.471 99.9102C187.655 98.1055 187.247 95.9355 187.247 93.4004V45.6406H180.028V41C181.231 41 182.907 40.6992 185.055 40.0977C187.204 39.4531 189.395 38.4004 191.63 36.9395C193.907 35.4785 196.012 33.5234 197.946 31.0742C199.88 28.625 201.255 25.5957 202.071 21.9863H207.227V41H217.733C221.171 41 222.889 40.4199 222.889 39.2598C222.889 38.8301 222.675 38.5508 222.245 38.4219C221.815 38.25 221.321 38.0566 220.763 37.8418C220.247 37.584 219.774 37.2402 219.345 36.8105C218.915 36.3809 218.7 35.6719 218.7 34.6836C218.7 33.4805 219.065 32.5352 219.796 31.8477C220.569 31.1602 221.557 30.8164 222.761 30.8164C223.534 30.8164 224.2 30.9883 224.759 31.332C225.36 31.6328 225.854 32.0625 226.241 32.6211C226.628 33.1367 226.907 33.7383 227.079 34.4258C227.294 35.1133 227.401 35.8008 227.401 36.4883C227.401 39.2812 226.585 41.5156 224.952 43.1914C223.362 44.8242 220.784 45.6406 217.218 45.6406H207.227Z" fill="white"/>
<path d="M176.638 101.199C176.638 101.758 176.53 102.445 176.316 103.262C176.144 104.035 175.693 104.787 174.962 105.518C174.275 106.205 173.265 106.785 171.933 107.258C170.601 107.773 168.796 108.031 166.519 108.031C164.241 108.031 162.458 107.752 161.169 107.193C159.88 106.678 158.913 106.055 158.269 105.324C157.624 104.594 157.216 103.842 157.044 103.068C156.915 102.295 156.851 101.672 156.851 101.199V51.4414C156.851 50.1953 156.55 49.1211 155.948 48.2188C155.39 47.2734 154.423 46.8008 153.048 46.8008C152.318 46.8008 151.695 46.9297 151.179 47.1875C150.663 47.4453 150.105 47.8105 149.503 48.2832L148.15 46.6719C149.138 45.8555 150.234 45.0605 151.437 44.2871C152.683 43.4707 154.015 42.7617 155.433 42.1602C156.851 41.5586 158.376 41.0645 160.009 40.6777C161.642 40.291 163.361 40.0977 165.165 40.0977C167.958 40.0977 170.128 40.4844 171.675 41.2578C173.222 41.9883 174.361 42.9121 175.091 44.0293C175.821 45.1035 176.251 46.2637 176.38 47.5098C176.552 48.7559 176.638 49.8516 176.638 50.7969V101.199ZM154.853 25.4023C154.853 24.1992 155.111 23.0605 155.626 21.9863C156.185 20.8691 156.937 19.9023 157.882 19.0859C158.87 18.2695 159.987 17.625 161.234 17.1523C162.523 16.6797 163.919 16.4434 165.423 16.4434C166.884 16.4434 168.237 16.6797 169.484 17.1523C170.773 17.625 171.89 18.2695 172.835 19.0859C173.78 19.9023 174.511 20.8691 175.027 21.9863C175.585 23.0605 175.864 24.1992 175.864 25.4023C175.864 26.6484 175.585 27.8086 175.027 28.8828C174.511 29.957 173.78 30.9023 172.835 31.7188C171.89 32.4922 170.773 33.1152 169.484 33.5879C168.237 34.0605 166.884 34.2969 165.423 34.2969C163.919 34.2969 162.523 34.0605 161.234 33.5879C159.987 33.1152 158.87 32.4922 157.882 31.7188C156.937 30.9023 156.185 29.957 155.626 28.8828C155.111 27.8086 154.853 26.6484 154.853 25.4023Z" fill="white"/>
<path d="M124.173 53.6973C125.806 51.2051 127.546 48.9492 129.394 46.9297C130.167 46.0703 131.005 45.2324 131.907 44.416C132.81 43.5996 133.734 42.8691 134.679 42.2246C135.667 41.5801 136.677 41.0645 137.708 40.6777C138.739 40.291 139.771 40.0977 140.802 40.0977C142.993 40.0977 144.712 40.7637 145.958 42.0957C147.204 43.3848 147.827 45.2109 147.827 47.5742C147.827 49.0352 147.698 50.4531 147.441 51.8281C147.226 53.1602 146.775 54.793 146.087 56.7266H144.282C144.025 55.3945 143.423 54.2988 142.478 53.4395C141.532 52.5371 140.157 52.0859 138.353 52.0859C137.021 52.0859 135.71 52.3438 134.421 52.8594C133.132 53.332 131.864 53.9336 130.618 54.6641C129.415 55.3945 128.255 56.1895 127.138 57.0488C126.064 57.9082 125.075 58.7246 124.173 59.498V101.328C124.173 101.887 124.087 102.553 123.915 103.326C123.743 104.1 123.314 104.83 122.626 105.518C121.982 106.205 120.993 106.785 119.661 107.258C118.372 107.773 116.589 108.031 114.312 108.031C112.034 108.031 110.23 107.752 108.898 107.193C107.609 106.678 106.62 106.055 105.933 105.324C105.245 104.594 104.816 103.842 104.644 103.068C104.472 102.295 104.386 101.672 104.386 101.199V51.4414C104.386 50.1953 104.085 49.1211 103.484 48.2188C102.925 47.2734 101.958 46.8008 100.583 46.8008C99.8527 46.8008 99.2297 46.9297 98.7141 47.1875C98.1984 47.4453 97.6398 47.8105 97.0383 48.2832L95.6848 46.6719C96.673 45.8555 97.7687 45.0605 98.9719 44.2871C100.218 43.4707 101.55 42.7617 102.968 42.1602C104.386 41.5586 105.911 41.0645 107.544 40.6777C109.177 40.291 110.896 40.0977 112.7 40.0977C114.548 40.0977 116.116 40.3555 117.405 40.8711C118.737 41.3438 119.812 41.9883 120.628 42.8047C121.487 43.5781 122.154 44.459 122.626 45.4473C123.099 46.4355 123.443 47.4453 123.657 48.4766C123.915 49.4648 124.066 50.4316 124.109 51.377C124.152 52.2793 124.173 53.0527 124.173 53.6973Z" fill="white"/>
<path d="M89.5875 60.5293C89.5875 57.6934 89.3941 55.3516 89.0074 53.5039C88.6207 51.6562 88.191 50.1309 87.7184 48.9277C87.2887 47.6816 86.8805 46.6719 86.4937 45.8984C86.107 45.082 85.9137 44.3301 85.9137 43.6426C85.9137 42.998 86.1715 42.4609 86.6871 42.0312C87.2027 41.6016 87.8043 41.2363 88.4918 40.9355C89.2223 40.6348 89.9527 40.4199 90.6832 40.291C91.4566 40.1621 92.0797 40.0977 92.5523 40.0977C93.7984 40.0977 94.7008 40.2695 95.2594 40.6133C95.818 40.957 96.2691 41.623 96.6129 42.6113C96.9996 43.8574 97.2574 45.5117 97.3863 47.5742C97.5582 49.5938 97.6441 51.7637 97.6441 54.084C97.6441 57.3926 97.4508 61.0234 97.0641 64.9766C96.6773 68.9297 96.0543 72.9043 95.1949 76.9004C94.3785 80.8965 93.3043 84.7637 91.9723 88.502C90.6832 92.2402 89.1148 95.5703 87.2672 98.4922C85.4195 101.371 83.2926 103.691 80.8863 105.453C78.4801 107.172 75.7516 108.031 72.7008 108.031C70.2945 108.031 68.1246 107.559 66.191 106.613C64.3004 105.625 62.6031 104.293 61.0992 102.617C59.5953 100.941 58.2633 98.9863 57.1031 96.752C55.9859 94.4746 54.9977 92.0469 54.1383 89.4688C53.15 92.0898 52.0113 94.5391 50.7223 96.8164C49.4332 99.0508 47.9937 101.006 46.4039 102.682C44.857 104.357 43.1383 105.668 41.2477 106.613C39.357 107.559 37.316 108.031 35.1246 108.031C32.4176 108.031 30.0113 107.451 27.9059 106.291C25.8434 105.088 24.0172 103.477 22.4273 101.457C20.8375 99.3945 19.4625 97.0098 18.3023 94.3027C17.1422 91.5957 16.1324 88.7383 15.273 85.7305C14.4566 82.7227 13.7691 79.6289 13.2105 76.4492C12.6519 73.2695 12.1793 70.1973 11.7926 67.2324C11.4059 64.2676 11.0836 61.4961 10.8258 58.918C10.568 56.3398 10.3102 54.1055 10.0523 52.2148C9.75156 50.4961 9.30038 49.1641 8.69882 48.2188C8.14023 47.2734 7.17343 46.8008 5.79843 46.8008C5.06796 46.8008 4.44492 46.9297 3.92929 47.1875C3.41367 47.4453 2.85507 47.8105 2.25351 48.2832L0.899994 46.6719C1.88828 45.8555 2.98398 45.0605 4.1871 44.2871C5.4332 43.4707 6.76523 42.7617 8.1832 42.1602C9.60117 41.5586 11.1266 41.0645 12.7594 40.6777C14.3922 40.291 16.1109 40.0977 17.9156 40.0977C20.4937 40.0977 22.5777 40.5488 24.1676 41.4512C25.7574 42.3105 27.0035 43.4062 27.9059 44.7383C28.8512 46.0273 29.5172 47.4238 29.9039 48.9277C30.2906 50.4316 30.5699 51.7852 30.7418 52.9883C31.5152 59.4766 32.2672 65.1914 32.9977 70.1328C33.7711 75.0742 34.5875 79.2207 35.4469 82.5723C36.3062 85.8809 37.2301 88.3945 38.2184 90.1133C39.2496 91.7891 40.4527 92.627 41.8277 92.627C42.7301 92.627 43.6109 92.2402 44.4703 91.4668C45.3297 90.6934 46.1461 89.6191 46.9195 88.2441C47.693 86.8691 48.4234 85.2148 49.1109 83.2812C49.7984 81.3047 50.4 79.1348 50.9156 76.7715C50.4859 74.4082 50.1207 72.0664 49.8199 69.7461C49.5191 67.4258 49.2398 65.2129 48.982 63.1074C48.7672 60.959 48.5523 58.9609 48.3375 57.1133C48.1227 55.2656 47.8863 53.6328 47.6285 52.2148C46.984 48.1758 47.3492 45.1465 48.7242 43.127C50.1422 41.1074 52.9566 40.0977 57.1676 40.0977C59.0152 40.0977 60.5621 40.2695 61.8082 40.6133C63.0973 40.9141 64.15 41.5156 64.9664 42.418C65.8258 43.2773 66.5133 44.4805 67.0289 46.0273C67.5445 47.5312 67.9527 49.4648 68.2535 51.8281C69.0699 58.2734 69.8648 64.0312 70.6383 69.1016C71.4117 74.1719 72.2281 78.4473 73.0875 81.9277C73.9469 85.4082 74.8707 88.0723 75.859 89.9199C76.8902 91.7246 78.0934 92.627 79.4684 92.627C80.9293 92.627 82.2828 91.7246 83.5289 89.9199C84.775 88.1152 85.8492 85.7305 86.7516 82.7656C87.6539 79.8008 88.3414 76.3848 88.8141 72.5176C89.3297 68.6504 89.5875 64.6543 89.5875 60.5293Z" fill="white"/>
<path fill-rule="evenodd" clip-rule="evenodd" d="M394.208 30.2615C378.073 30.2615 362.84 42.1822 358.171 60.9148C353.501 79.6474 360.577 101.802 384.319 101.802C408.062 101.802 421.658 78.73 421.658 59.525C421.68 40.4353 408.793 30.256 394.213 30.256L394.208 30.2615ZM393.606 44.9742C387.035 44.0767 379.843 50.4667 376.387 61.5803C372.932 72.6938 373.976 86.5386 383.646 87.8594C393.315 89.1803 400.766 75.9285 402.359 64.2684C403.951 52.6795 399.547 45.7823 393.609 44.9712L393.606 44.9742Z" fill="#4353FF"/>
<path d="M310.543 31.47H324.519L324.112 34.0465C323.233 41.2703 318.19 45.6101 313.872 45.6101H309.478L303.347 96.4957C301.49 111.614 293.085 122.029 279.956 122.513C279.659 122.513 279.302 122.458 279 122.458L281.406 110.773L289.262 45.6211H279.901L280.203 43.215C281.049 36.6503 286.081 31.47 290.641 31.47H290.943L290.998 31.0471C293.255 12.4903 302.122 0.333319 330.138 0.514602L328.397 10.2105C327.859 12.9792 325.7 15.5062 320.838 15.9896C313.718 16.7751 311.56 21.5929 310.598 30.7449L310.543 31.47Z" fill="#4353FF"/>
<path d="M490.628 79.4002L499.384 51.7573H499.329C503.169 41.2813 510.728 31.4646 525 31.4646L504.658 81.6305C500.444 91.6889 492.677 100.901 478.163 100.901C478.163 100.901 471.977 57.9593 471.923 56.998L462.924 80.6032C458.843 91.0188 451.042 100.841 436.594 100.896L425.261 31.4591C434.721 31.4591 446.367 39.2268 447.235 51.9935C447.235 51.9935 448.68 77.472 448.735 79.4606L459.414 51.6968C463.281 41.2813 470.665 31.4041 484.453 31.4041C484.453 31.4041 490.391 77.2303 490.628 79.4002Z" fill="#4353FF"/>
<path d="M325.958 95.7046L337.714 0.503621V0.49263C346.772 0.49263 356.666 10.8477 354.611 27.5313L347.838 82.1524C346.152 96.1881 337.153 107.323 324.508 107.505C324.211 107.505 323.848 107.45 323.552 107.45L325.958 95.7046Z" fill="#4353FF"/>
</svg>
